  0
SECTION
  2
HEADER
  9
$ACADVER
  1
AC1009
  9
$EXTMIN
 10
0.0
 20
0.0
 30
0.0
  9
$EXTMAX
 10
1000.0
 20
1000.0
 30
0.0
  9
$FILLMODE
 70
 0
  9
$SPLFRAME
 70
 1
  0
ENDSEC
  0
SECTION
  2
TABLES
  0
TABLE
  2
LAYER
 70
1
  0
LAYER
  2
0
 70
     0
 62
     7
  6
CONTINUOUS
  0
ENDTAB
  0
ENDSEC
  0
SECTION
  2
ENTITIES
  0
LINE
  8
0
 62
     0
 10
20.9489
 20
16.4869
 30
0.0
 11
14.7739
 21
15.4726
 31
0.0
  0
LINE
  8
0
 62
     0
 10
14.7739
 20
15.4726
 30
0.0
 11
12.31
 21
0
 31
0.0
  0
LINE
  8
0
 62
     0
 10
12.31
 20
0
 30
0.0
 11
12.5911
 21
0.259071
 31
0.0
  0
LINE
  8
0
 62
     0
 10
12.5911
 20
0.259071
 30
0.0
 11
13.7776
 21
1.3615
 31
0.0
  0
LINE
  8
0
 62
     0
 10
13.7776
 20
1.3615
 30
0.0
 11
15.3072
 21
11.0133
 31
0.0
  0
LINE
  8
0
 62
     0
 10
15.3072
 20
11.0133
 30
0.0
 11
17.3247
 21
11.2971
 31
0.0
  0
LINE
  8
0
 62
     0
 10
17.3247
 20
11.2971
 30
0.0
 11
17.5782
 21
12.5911
 31
0.0
  0
LINE
  8
0
 62
     0
 10
17.5782
 20
12.5911
 30
0.0
 11
15.5333
 21
12.3073
 31
0.0
  0
LINE
  8
0
 62
     0
 10
15.5333
 20
12.3073
 30
0.0
 11
15.8571
 21
14.4418
 31
0.0
  0
LINE
  8
0
 62
     0
 10
15.8571
 20
14.4418
 30
0.0
 11
19.615
 21
15.0688
 31
0.0
  0
LINE
  8
0
 62
     0
 10
19.615
 20
15.0688
 30
0.0
 11
20.9489
 21
16.4869
 31
0.0
  0
LINE
  8
0
 62
     0
 10
13.5806
 20
16.4937
 30
0.0
 11
12.8764
 21
11.9614
 31
0.0
  0
LINE
  8
0
 62
     0
 10
12.8764
 20
11.9614
 30
0.0
 11
10.9127
 21
13.943
 31
0.0
  0
LINE
  8
0
 62
     0
 10
10.9127
 20
13.943
 30
0.0
 11
9.21494
 21
13.7363
 31
0.0
  0
LINE
  8
0
 62
     0
 10
9.21494
 20
13.7363
 30
0.0
 11
9.39821
 21
13.5447
 31
0.0
  0
LINE
  8
0
 62
     0
 10
9.39821
 20
13.5447
 30
0.0
 11
12.5608
 21
10.2512
 31
0.0
  0
LINE
  8
0
 62
     0
 10
12.5608
 20
10.2512
 30
0.0
 11
11.7767
 21
4.94302
 31
0.0
  0
LINE
  8
0
 62
     0
 10
11.7767
 20
4.94302
 30
0.0
 11
12.8199
 21
3.76894
 31
0.0
  0
LINE
  8
0
 62
     0
 10
12.8199
 20
3.76894
 30
0.0
 11
14.6968
 21
15.3362
 31
0.0
  0
LINE
  8
0
 62
     0
 10
14.6968
 20
15.3362
 30
0.0
 11
13.5806
 21
16.4937
 31
0.0
  0
LINE
  8
0
 62
     0
 10
9.03855
 20
13.6619
 30
0.0
 11
6.97562
 21
13.2774
 31
0.0
  0
LINE
  8
0
 62
     0
 10
6.97562
 20
13.2774
 30
0.0
 11
6.34312
 21
12.6118
 31
0.0
  0
LINE
  8
0
 62
     0
 10
6.34312
 20
12.6118
 30
0.0
 11
6.31694
 21
12.4423
 31
0.0
  0
LINE
  8
0
 62
     0
 10
6.31694
 20
12.4423
 30
0.0
 11
6.09783
 21
10.8162
 31
0.0
  0
LINE
  8
0
 62
     0
 10
6.09783
 20
10.8162
 30
0.0
 11
6.07579
 21
10.644
 31
0.0
  0
LINE
  8
0
 62
     0
 10
6.07579
 20
10.644
 30
0.0
 11
5.39641
 21
10.039
 31
0.0
  0
LINE
  8
0
 62
     0
 10
5.39641
 20
10.039
 30
0.0
 11
5.86355
 21
9.53463
 31
0.0
  0
LINE
  8
0
 62
     0
 10
5.86355
 20
9.53463
 30
0.0
 11
5.49561
 21
7.20302
 31
0.0
  0
LINE
  8
0
 62
     0
 10
5.49561
 20
7.20302
 30
0.0
 11
6.07991
 21
6.46299
 31
0.0
  0
LINE
  8
0
 62
     0
 10
6.07991
 20
6.46299
 30
0.0
 11
10.2691
 21
7.11482
 31
0.0
  0
LINE
  8
0
 62
     0
 10
10.2691
 20
7.11482
 30
0.0
 11
9.25767
 21
8.14836
 31
0.0
  0
LINE
  8
0
 62
     0
 10
9.25767
 20
8.14836
 30
0.0
 11
6.84332
 21
7.78178
 31
0.0
  0
LINE
  8
0
 62
     0
 10
6.84332
 20
7.78178
 30
0.0
 11
7.12033
 21
9.71102
 31
0.0
  0
LINE
  8
0
 62
     0
 10
7.12033
 20
9.71102
 30
0.0
 11
9.12675
 21
9.9701
 31
0.0
  0
LINE
  8
0
 62
     0
 10
9.12675
 20
9.9701
 30
0.0
 11
9.75512
 21
10.6812
 31
0.0
  0
LINE
  8
0
 62
     0
 10
9.75512
 20
10.6812
 30
0.0
 11
9.2425
 21
11.2407
 31
0.0
  0
LINE
  8
0
 62
     0
 10
9.2425
 20
11.2407
 30
0.0
 11
7.34356
 21
10.9389
 31
0.0
  0
LINE
  8
0
 62
     0
 10
7.34356
 20
10.9389
 30
0.0
 11
7.5227
 21
12.2673
 31
0.0
  0
LINE
  8
0
 62
     0
 10
7.5227
 20
12.2673
 30
0.0
 11
10.0762
 21
12.6256
 31
0.0
  0
LINE
  8
0
 62
     0
 10
10.0762
 20
12.6256
 30
0.0
 11
9.03855
 21
13.6619
 31
0.0
  0
LINE
  8
0
 62
     0
 10
2.88148
 20
14.6623
 30
0.0
 11
2.60587
 21
14.4019
 31
0.0
  0
LINE
  8
0
 62
     0
 10
2.60587
 20
14.4019
 30
0.0
 11
1.45107
 21
13.316
 31
0.0
  0
LINE
  8
0
 62
     0
 10
1.45107
 20
13.316
 30
0.0
 11
1.01699
 21
9.85986
 31
0.0
  0
LINE
  8
0
 62
     0
 10
1.01699
 20
9.85986
 30
0.0
 11
0.345888
 21
9.2232
 31
0.0
  0
LINE
  8
0
 62
     0
 10
0.345888
 20
9.2232
 30
0.0
 11
0.767567
 21
8.6899
 31
0.0
  0
LINE
  8
0
 62
     0
 10
0.767567
 20
8.6899
 30
0.0
 11
0
 21
3.9412
 31
0.0
  0
LINE
  8
0
 62
     0
 10
0
 20
3.9412
 30
0.0
 11
1.01148
 21
2.82084
 31
0.0
  0
LINE
  8
0
 62
     0
 10
1.01148
 20
2.82084
 30
0.0
 11
1.8824
 21
8.29303
 31
0.0
  0
LINE
  8
0
 62
     0
 10
1.8824
 20
8.29303
 30
0.0
 11
2.3592
 21
8.74367
 31
0.0
  0
LINE
  8
0
 62
     0
 10
2.3592
 20
8.74367
 30
0.0
 11
4.82039
 21
5.36332
 31
0.0
  0
LINE
  8
0
 62
     0
 10
4.82039
 20
5.36332
 30
0.0
 11
6.58566
 21
5.52595
 31
0.0
  0
LINE
  8
0
 62
     0
 10
6.58566
 20
5.52595
 30
0.0
 11
3.40376
 21
9.75237
 31
0.0
  0
LINE
  8
0
 62
     0
 10
3.40376
 20
9.75237
 30
0.0
 11
7.84793
 21
14.3343
 31
0.0
  0
LINE
  8
0
 62
     0
 10
7.84793
 20
14.3343
 30
0.0
 11
6.10747
 21
14.1139
 31
0.0
  0
LINE
  8
0
 62
     0
 10
6.10747
 20
14.1139
 30
0.0
 11
2.21726
 21
10.0817
 31
0.0
  0
LINE
  8
0
 62
     0
 10
2.21726
 20
10.0817
 30
0.0
 11
2.88148
 21
14.6623
 31
0.0
  0
LINE
  8
0
 62
     0
 10
26.8442
 20
16.4896
 30
0.0
 11
24.055
 21
16.1079
 31
0.0
  0
LINE
  8
0
 62
     0
 10
24.055
 20
16.1079
 30
0.0
 11
24.8736
 21
15.135
 31
0.0
  0
LINE
  8
0
 62
     0
 10
24.8736
 20
15.135
 30
0.0
 11
23.971
 21
9.24387
 31
0.0
  0
LINE
  8
0
 62
     0
 10
23.971
 20
9.24387
 30
0.0
 11
24.1432
 21
9.26317
 31
0.0
  0
LINE
  8
0
 62
     0
 10
24.1432
 20
9.26317
 30
0.0
 11
25.2788
 21
9.38996
 31
0.0
  0
LINE
  8
0
 62
     0
 10
25.2788
 20
9.38996
 30
0.0
 11
25.688
 21
12.1598
 31
0.0
  0
LINE
  8
0
 62
     0
 10
25.688
 20
12.1598
 30
0.0
 11
27.1157
 21
9.81989
 31
0.0
  0
LINE
  8
0
 62
     0
 10
27.1157
 20
9.81989
 30
0.0
 11
28.6577
 21
10.0059
 31
0.0
  0
LINE
  8
0
 62
     0
 10
28.6577
 20
10.0059
 30
0.0
 11
27.0357
 21
12.6545
 31
0.0
  0
LINE
  8
0
 62
     0
 10
27.0357
 20
12.6545
 30
0.0
 11
27.0619
 21
12.6628
 31
0.0
  0
LINE
  8
0
 62
     0
 10
27.0619
 20
12.6628
 30
0.0
 11
27.2548
 21
12.722
 31
0.0
  0
LINE
  8
0
 62
     0
 10
27.2548
 20
12.722
 30
0.0
 11
27.547
 21
12.8902
 31
0.0
  0
LINE
  8
0
 62
     0
 10
27.547
 20
12.8902
 30
0.0
 11
27.6255
 21
12.9508
 31
0.0
  0
LINE
  8
0
 62
     0
 10
27.6255
 20
12.9508
 30
0.0
 11
27.7234
 21
13.0294
 31
0.0
  0
LINE
  8
0
 62
     0
 10
27.7234
 20
13.0294
 30
0.0
 11
28.1988
 21
13.6274
 31
0.0
  0
LINE
  8
0
 62
     0
 10
28.1988
 20
13.6274
 30
0.0
 11
28.5805
 21
14.5521
 31
0.0
  0
LINE
  8
0
 62
     0
 10
28.5805
 20
14.5521
 30
0.0
 11
28.6329
 21
14.7946
 31
0.0
  0
LINE
  8
0
 62
     0
 10
28.6329
 20
14.7946
 30
0.0
 11
28.6591
 21
14.9187
 31
0.0
  0
LINE
  8
0
 62
     0
 10
28.6591
 20
14.9187
 30
0.0
 11
28.6935
 21
15.4464
 31
0.0
  0
LINE
  8
0
 62
     0
 10
28.6935
 20
15.4464
 30
0.0
 11
28.597
 21
15.8612
 31
0.0
  0
LINE
  8
0
 62
     0
 10
28.597
 20
15.8612
 30
0.0
 11
28.5585
 21
15.9274
 31
0.0
  0
LINE
  8
0
 62
     0
 10
28.5585
 20
15.9274
 30
0.0
 11
28.5185
 21
15.9949
 31
0.0
  0
LINE
  8
0
 62
     0
 10
28.5185
 20
15.9949
 30
0.0
 11
27.9563
 21
16.4069
 31
0.0
  0
LINE
  8
0
 62
     0
 10
27.9563
 20
16.4069
 30
0.0
 11
27.8929
 21
16.4262
 31
0.0
  0
LINE
  8
0
 62
     0
 10
27.8929
 20
16.4262
 30
0.0
 11
27.7661
 21
16.4662
 31
0.0
  0
LINE
  8
0
 62
     0
 10
27.7661
 20
16.4662
 30
0.0
 11
27.1832
 21
16.5185
 31
0.0
  0
LINE
  8
0
 62
     0
 10
27.1832
 20
16.5185
 30
0.0
 11
26.8511
 21
16.491
 31
0.0
  0
LINE
  8
0
 62
     0
 10
26.8511
 20
16.491
 30
0.0
 11
26.8497
 21
16.4896
 31
0.0
  0
LINE
  8
0
 62
     0
 10
26.8497
 20
16.4896
 30
0.0
 11
26.8442
 21
16.4896
 31
0.0
  0
LINE
  8
0
 62
     0
 10
27.2411
 20
15.638
 30
0.0
 11
27.3637
 21
15.6352
 31
0.0
  0
LINE
  8
0
 62
     0
 10
27.3637
 20
15.6352
 30
0.0
 11
27.7289
 21
15.4258
 31
0.0
  0
LINE
  8
0
 62
     0
 10
27.7289
 20
15.4258
 30
0.0
 11
27.7964
 21
14.9435
 31
0.0
  0
LINE
  8
0
 62
     0
 10
27.7964
 20
14.9435
 30
0.0
 11
27.7937
 21
14.8042
 31
0.0
  0
LINE
  8
0
 62
     0
 10
27.7937
 20
14.8042
 30
0.0
 11
27.7509
 21
14.6375
 31
0.0
  0
LINE
  8
0
 62
     0
 10
27.7509
 20
14.6375
 30
0.0
 11
27.4877
 21
14.1704
 31
0.0
  0
LINE
  8
0
 62
     0
 10
27.4877
 20
14.1704
 30
0.0
 11
27.0123
 21
13.7804
 31
0.0
  0
LINE
  8
0
 62
     0
 10
27.0123
 20
13.7804
 30
0.0
 11
26.4267
 21
13.5558
 31
0.0
  0
LINE
  8
0
 62
     0
 10
26.4267
 20
13.5558
 30
0.0
 11
25.9498
 21
13.4483
 31
0.0
  0
LINE
  8
0
 62
     0
 10
25.9498
 20
13.4483
 30
0.0
 11
25.79
 21
13.418
 31
0.0
  0
LINE
  8
0
 62
     0
 10
25.79
 20
13.418
 30
0.0
 11
26.0298
 21
15.4395
 31
0.0
  0
LINE
  8
0
 62
     0
 10
26.0298
 20
15.4395
 30
0.0
 11
26.1648
 21
15.4657
 31
0.0
  0
LINE
  8
0
 62
     0
 10
26.1648
 20
15.4657
 30
0.0
 11
26.5727
 21
15.5456
 31
0.0
  0
LINE
  8
0
 62
     0
 10
26.5727
 20
15.5456
 30
0.0
 11
26.8152
 21
15.587
 31
0.0
  0
LINE
  8
0
 62
     0
 10
26.8152
 20
15.587
 30
0.0
 11
26.9655
 21
15.6063
 31
0.0
  0
LINE
  8
0
 62
     0
 10
26.9655
 20
15.6063
 30
0.0
 11
27.1721
 21
15.6297
 31
0.0
  0
LINE
  8
0
 62
     0
 10
27.1721
 20
15.6297
 30
0.0
 11
27.2411
 21
15.638
 31
0.0
  0
LINE
  8
0
 62
     0
 10
32.8138
 20
17.6623
 30
0.0
 11
32.6003
 21
17.6651
 31
0.0
  0
LINE
  8
0
 62
     0
 10
32.6003
 20
17.6651
 30
0.0
 11
31.4785
 21
17.3784
 31
0.0
  0
LINE
  8
0
 62
     0
 10
31.4785
 20
17.3784
 30
0.0
 11
30.3747
 21
16.7624
 31
0.0
  0
LINE
  8
0
 62
     0
 10
30.3747
 20
16.7624
 30
0.0
 11
30.1694
 21
16.5999
 31
0.0
  0
LINE
  8
0
 62
     0
 10
30.1694
 20
16.5999
 30
0.0
 11
29.9641
 21
16.4373
 31
0.0
  0
LINE
  8
0
 62
     0
 10
29.9641
 20
16.4373
 30
0.0
 11
29.1138
 21
15.4327
 31
0.0
  0
LINE
  8
0
 62
     0
 10
29.1138
 20
15.4327
 30
0.0
 11
28.553
 21
14.2765
 31
0.0
  0
LINE
  8
0
 62
     0
 10
28.553
 20
14.2765
 30
0.0
 11
28.4923
 21
14.0367
 31
0.0
  0
LINE
  8
0
 62
     0
 10
28.4923
 20
14.0367
 30
0.0
 11
28.4317
 21
13.8024
 31
0.0
  0
LINE
  8
0
 62
     0
 10
28.4317
 20
13.8024
 30
0.0
 11
28.2842
 21
12.6752
 31
0.0
  0
LINE
  8
0
 62
     0
 10
28.2842
 20
12.6752
 30
0.0
 11
28.4345
 21
11.6499
 31
0.0
  0
LINE
  8
0
 62
     0
 10
28.4345
 20
11.6499
 30
0.0
 11
28.524
 21
11.4653
 31
0.0
  0
LINE
  8
0
 62
     0
 10
28.524
 20
11.4653
 30
0.0
 11
28.5874
 21
11.3316
 31
0.0
  0
LINE
  8
0
 62
     0
 10
28.5874
 20
11.3316
 30
0.0
 11
28.8644
 21
10.9678
 31
0.0
  0
LINE
  8
0
 62
     0
 10
28.8644
 20
10.9678
 30
0.0
 11
29.3577
 21
10.5944
 31
0.0
  0
LINE
  8
0
 62
     0
 10
29.3577
 20
10.5944
 30
0.0
 11
30.0068
 21
10.3739
 31
0.0
  0
LINE
  8
0
 62
     0
 10
30.0068
 20
10.3739
 30
0.0
 11
30.6173
 21
10.3201
 31
0.0
  0
LINE
  8
0
 62
     0
 10
30.6173
 20
10.3201
 30
0.0
 11
30.8185
 21
10.3325
 31
0.0
  0
LINE
  8
0
 62
     0
 10
30.8185
 20
10.3325
 30
0.0
 11
31.1161
 21
10.3518
 31
0.0
  0
LINE
  8
0
 62
     0
 10
31.1161
 20
10.3518
 30
0.0
 11
32.3894
 21
10.7873
 31
0.0
  0
LINE
  8
0
 62
     0
 10
32.3894
 20
10.7873
 30
0.0
 11
33.3912
 21
11.5493
 31
0.0
  0
LINE
  8
0
 62
     0
 10
33.3912
 20
11.5493
 30
0.0
 11
33.5525
 21
11.7326
 31
0.0
  0
LINE
  8
0
 62
     0
 10
33.5525
 20
11.7326
 30
0.0
 11
33.7137
 21
11.9159
 31
0.0
  0
LINE
  8
0
 62
     0
 10
33.7137
 20
11.9159
 30
0.0
 11
34.2553
 21
12.813
 31
0.0
  0
LINE
  8
0
 62
     0
 10
34.2553
 20
12.813
 30
0.0
 11
34.5819
 21
13.6798
 31
0.0
  0
LINE
  8
0
 62
     0
 10
34.5819
 20
13.6798
 30
0.0
 11
34.6356
 21
13.8479
 31
0.0
  0
LINE
  8
0
 62
     0
 10
34.6356
 20
13.8479
 30
0.0
 11
34.6439
 21
13.8782
 31
0.0
  0
LINE
  8
0
 62
     0
 10
34.6439
 20
13.8782
 30
0.0
 11
34.6852
 21
14.0877
 31
0.0
  0
LINE
  8
0
 62
     0
 10
34.6852
 20
14.0877
 30
0.0
 11
34.7073
 21
14.2379
 31
0.0
  0
LINE
  8
0
 62
     0
 10
34.7073
 20
14.2379
 30
0.0
 11
34.7073
 21
14.2379
 31
0.0
  0
LINE
  8
0
 62
     0
 10
34.7073
 20
14.2379
 30
0.0
 11
34.6825
 21
14.282
 31
0.0
  0
LINE
  8
0
 62
     0
 10
34.6825
 20
14.282
 30
0.0
 11
34.3807
 21
14.6058
 31
0.0
  0
LINE
  8
0
 62
     0
 10
34.3807
 20
14.6058
 30
0.0
 11
34.3393
 21
14.6362
 31
0.0
  0
LINE
  8
0
 62
     0
 10
34.3393
 20
14.6362
 30
0.0
 11
34.3187
 21
14.6403
 31
0.0
  0
LINE
  8
0
 62
     0
 10
34.3187
 20
14.6403
 30
0.0
 11
30.4436
 21
14.067
 31
0.0
  0
LINE
  8
0
 62
     0
 10
30.4436
 20
14.067
 30
0.0
 11
31.4096
 21
13.0114
 31
0.0
  0
LINE
  8
0
 62
     0
 10
31.4096
 20
13.0114
 30
0.0
 11
33.2838
 21
13.2815
 31
0.0
  0
LINE
  8
0
 62
     0
 10
33.2838
 20
13.2815
 30
0.0
 11
33.2631
 21
13.243
 31
0.0
  0
LINE
  8
0
 62
     0
 10
33.2631
 20
13.243
 30
0.0
 11
33.1281
 21
12.9853
 31
0.0
  0
LINE
  8
0
 62
     0
 10
33.1281
 20
12.9853
 30
0.0
 11
32.8786
 21
12.6173
 31
0.0
  0
LINE
  8
0
 62
     0
 10
32.8786
 20
12.6173
 30
0.0
 11
32.8015
 21
12.5236
 31
0.0
  0
LINE
  8
0
 62
     0
 10
32.8015
 20
12.5236
 30
0.0
 11
32.7008
 21
12.4024
 31
0.0
  0
LINE
  8
0
 62
     0
 10
32.7008
 20
12.4024
 30
0.0
 11
32.0807
 21
11.8787
 31
0.0
  0
LINE
  8
0
 62
     0
 10
32.0807
 20
11.8787
 30
0.0
 11
31.3214
 21
11.6196
 31
0.0
  0
LINE
  8
0
 62
     0
 10
31.3214
 20
11.6196
 30
0.0
 11
31.1519
 21
11.6307
 31
0.0
  0
LINE
  8
0
 62
     0
 10
31.1519
 20
11.6307
 30
0.0
 11
30.9742
 21
11.643
 31
0.0
  0
LINE
  8
0
 62
     0
 10
30.9742
 20
11.643
 30
0.0
 11
30.2948
 21
11.8663
 31
0.0
  0
LINE
  8
0
 62
     0
 10
30.2948
 20
11.8663
 30
0.0
 11
29.8552
 21
12.2535
 31
0.0
  0
LINE
  8
0
 62
     0
 10
29.8552
 20
12.2535
 30
0.0
 11
29.7987
 21
12.3472
 31
0.0
  0
LINE
  8
0
 62
     0
 10
29.7987
 20
12.3472
 30
0.0
 11
29.7408
 21
12.4423
 31
0.0
  0
LINE
  8
0
 62
     0
 10
29.7408
 20
12.4423
 30
0.0
 11
29.592
 21
12.9673
 31
0.0
  0
LINE
  8
0
 62
     0
 10
29.592
 20
12.9673
 30
0.0
 11
29.6085
 21
13.5048
 31
0.0
  0
LINE
  8
0
 62
     0
 10
29.6085
 20
13.5048
 30
0.0
 11
29.6347
 21
13.6054
 31
0.0
  0
LINE
  8
0
 62
     0
 10
29.6347
 20
13.6054
 30
0.0
 11
29.6595
 21
13.7074
 31
0.0
  0
LINE
  8
0
 62
     0
 10
29.6595
 20
13.7074
 30
0.0
 11
29.9489
 21
14.3798
 31
0.0
  0
LINE
  8
0
 62
     0
 10
29.9489
 20
14.3798
 30
0.0
 11
30.4395
 21
15.1419
 31
0.0
  0
LINE
  8
0
 62
     0
 10
30.4395
 20
15.1419
 30
0.0
 11
30.5663
 21
15.2866
 31
0.0
  0
LINE
  8
0
 62
     0
 10
30.5663
 20
15.2866
 30
0.0
 11
30.6917
 21
15.4327
 31
0.0
  0
LINE
  8
0
 62
     0
 10
30.6917
 20
15.4327
 30
0.0
 11
31.4413
 21
16.0404
 31
0.0
  0
LINE
  8
0
 62
     0
 10
31.4413
 20
16.0404
 30
0.0
 11
32.3371
 21
16.3711
 31
0.0
  0
LINE
  8
0
 62
     0
 10
32.3371
 20
16.3711
 30
0.0
 11
32.5355
 21
16.3794
 31
0.0
  0
LINE
  8
0
 62
     0
 10
32.5355
 20
16.3794
 30
0.0
 11
32.6815
 21
16.3862
 31
0.0
  0
LINE
  8
0
 62
     0
 10
32.6815
 20
16.3862
 30
0.0
 11
33.2245
 21
16.2829
 31
0.0
  0
LINE
  8
0
 62
     0
 10
33.2245
 20
16.2829
 30
0.0
 11
33.5635
 21
16.0762
 31
0.0
  0
LINE
  8
0
 62
     0
 10
33.5635
 20
16.0762
 30
0.0
 11
33.6076
 21
16.0293
 31
0.0
  0
LINE
  8
0
 62
     0
 10
33.6076
 20
16.0293
 30
0.0
 11
33.6517
 21
15.9839
 31
0.0
  0
LINE
  8
0
 62
     0
 10
33.6517
 20
15.9839
 30
0.0
 11
33.7798
 21
15.7772
 31
0.0
  0
LINE
  8
0
 62
     0
 10
33.7798
 20
15.7772
 30
0.0
 11
33.8198
 21
15.6641
 31
0.0
  0
LINE
  8
0
 62
     0
 10
33.8198
 20
15.6641
 30
0.0
 11
33.8198
 21
15.6641
 31
0.0
  0
LINE
  8
0
 62
     0
 10
33.8198
 20
15.6641
 30
0.0
 11
33.8667
 21
15.4409
 31
0.0
  0
LINE
  8
0
 62
     0
 10
33.8667
 20
15.4409
 30
0.0
 11
34.0376
 21
15.5939
 31
0.0
  0
LINE
  8
0
 62
     0
 10
34.0376
 20
15.5939
 30
0.0
 11
34.9925
 21
16.44
 31
0.0
  0
LINE
  8
0
 62
     0
 10
34.9925
 20
16.44
 30
0.0
 11
34.9595
 21
16.5255
 31
0.0
  0
LINE
  8
0
 62
     0
 10
34.9595
 20
16.5255
 30
0.0
 11
34.9595
 21
16.5255
 31
0.0
  0
LINE
  8
0
 62
     0
 10
34.9595
 20
16.5255
 30
0.0
 11
34.8602
 21
16.7073
 31
0.0
  0
LINE
  8
0
 62
     0
 10
34.8602
 20
16.7073
 30
0.0
 11
34.5984
 21
17.0284
 31
0.0
  0
LINE
  8
0
 62
     0
 10
34.5984
 20
17.0284
 30
0.0
 11
34.5171
 21
17.0973
 31
0.0
  0
LINE
  8
0
 62
     0
 10
34.5171
 20
17.0973
 30
0.0
 11
34.4358
 21
17.1676
 31
0.0
  0
LINE
  8
0
 62
     0
 10
34.4358
 20
17.1676
 30
0.0
 11
33.8584
 21
17.4818
 31
0.0
  0
LINE
  8
0
 62
     0
 10
33.8584
 20
17.4818
 30
0.0
 11
33.0247
 21
17.6609
 31
0.0
  0
LINE
  8
0
 62
     0
 10
33.0247
 20
17.6609
 30
0.0
 11
32.8152
 21
17.6623
 31
0.0
  0
LINE
  8
0
 62
     0
 10
32.8152
 20
17.6623
 30
0.0
 11
32.8138
 21
17.6623
 31
0.0
  0
LINE
  8
0
 62
     0
 10
40.3931
 20
18.7206
 30
0.0
 11
34.3131
 21
17.7891
 31
0.0
  0
LINE
  8
0
 62
     0
 10
34.3131
 20
17.7891
 30
0.0
 11
34.4882
 21
17.6058
 31
0.0
  0
LINE
  8
0
 62
     0
 10
34.4882
 20
17.6058
 30
0.0
 11
35.2612
 21
16.801
 31
0.0
  0
LINE
  8
0
 62
     0
 10
35.2612
 20
16.801
 30
0.0
 11
35.0297
 21
15.2907
 31
0.0
  0
LINE
  8
0
 62
     0
 10
35.0297
 20
15.2907
 30
0.0
 11
34.4138
 21
14.7298
 31
0.0
  0
LINE
  8
0
 62
     0
 10
34.4138
 20
14.7298
 30
0.0
 11
34.8616
 21
14.2434
 31
0.0
  0
LINE
  8
0
 62
     0
 10
34.8616
 20
14.2434
 30
0.0
 11
34.5764
 21
12.1447
 31
0.0
  0
LINE
  8
0
 62
     0
 10
34.5764
 20
12.1447
 30
0.0
 11
33.2893
 21
10.8162
 31
0.0
  0
LINE
  8
0
 62
     0
 10
33.2893
 20
10.8162
 30
0.0
 11
39.3181
 21
11.8497
 31
0.0
  0
LINE
  8
0
 62
     0
 10
39.3181
 20
11.8497
 30
0.0
 11
38.2351
 21
12.824
 31
0.0
  0
LINE
  8
0
 62
     0
 10
38.2351
 20
12.824
 30
0.0
 11
35.8923
 21
12.5057
 31
0.0
  0
LINE
  8
0
 62
     0
 10
35.8923
 20
12.5057
 30
0.0
 11
36.1541
 21
14.3729
 31
0.0
  0
LINE
  8
0
 62
     0
 10
36.1541
 20
14.3729
 30
0.0
 11
38.1275
 21
14.683
 31
0.0
  0
LINE
  8
0
 62
     0
 10
38.1275
 20
14.683
 30
0.0
 11
38.7572
 21
15.4134
 31
0.0
  0
LINE
  8
0
 62
     0
 10
38.7572
 20
15.4134
 30
0.0
 11
38.2379
 21
15.9329
 31
0.0
  0
LINE
  8
0
 62
     0
 10
38.2379
 20
15.9329
 30
0.0
 11
36.365
 21
15.6504
 31
0.0
  0
LINE
  8
0
 62
     0
 10
36.365
 20
15.6504
 30
0.0
 11
36.5704
 21
16.9292
 31
0.0
  0
LINE
  8
0
 62
     0
 10
36.5704
 20
16.9292
 30
0.0
 11
39.0758
 21
17.3398
 31
0.0
  0
LINE
  8
0
 62
     0
 10
39.0758
 20
17.3398
 30
0.0
 11
40.3931
 21
18.7206
 31
0.0
  0
LINE
  8
0
 62
     0
 10
22.1947
 20
15.7827
 30
0.0
 11
22.0762
 21
15.7978
 31
0.0
  0
LINE
  8
0
 62
     0
 10
22.0762
 20
15.7978
 30
0.0
 11
20.9269
 21
15.649
 31
0.0
  0
LINE
  8
0
 62
     0
 10
20.9269
 20
15.649
 30
0.0
 11
20.8208
 21
15.609
 31
0.0
  0
LINE
  8
0
 62
     0
 10
20.8208
 20
15.609
 30
0.0
 11
20.6072
 21
15.5319
 31
0.0
  0
LINE
  8
0
 62
     0
 10
20.6072
 20
15.5319
 30
0.0
 11
19.6426
 21
14.9751
 31
0.0
  0
LINE
  8
0
 62
     0
 10
19.6426
 20
14.9751
 30
0.0
 11
18.8295
 21
14.3013
 31
0.0
  0
LINE
  8
0
 62
     0
 10
18.8295
 20
14.3013
 30
0.0
 11
18.6931
 21
14.1635
 31
0.0
  0
LINE
  8
0
 62
     0
 10
18.6931
 20
14.1635
 30
0.0
 11
18.6793
 21
14.1483
 31
0.0
  0
LINE
  8
0
 62
     0
 10
18.6793
 20
14.1483
 30
0.0
 11
18.6655
 21
14.1345
 31
0.0
  0
LINE
  8
0
 62
     0
 10
18.6655
 20
14.1345
 30
0.0
 11
18.5291
 21
13.9788
 31
0.0
  0
LINE
  8
0
 62
     0
 10
18.5291
 20
13.9788
 30
0.0
 11
17.9379
 21
13.0762
 31
0.0
  0
LINE
  8
0
 62
     0
 10
17.9379
 20
13.0762
 30
0.0
 11
17.5355
 21
12.0454
 31
0.0
  0
LINE
  8
0
 62
     0
 10
17.5355
 20
12.0454
 30
0.0
 11
17.4942
 21
11.8263
 31
0.0
  0
LINE
  8
0
 62
     0
 10
17.4942
 20
11.8263
 30
0.0
 11
17.4515
 21
11.6072
 31
0.0
  0
LINE
  8
0
 62
     0
 10
17.4515
 20
11.6072
 30
0.0
 11
17.5286
 21
10.4717
 31
0.0
  0
LINE
  8
0
 62
     0
 10
17.5286
 20
10.4717
 30
0.0
 11
18.0674
 21
9.41888
 31
0.0
  0
LINE
  8
0
 62
     0
 10
18.0674
 20
9.41888
 30
0.0
 11
18.2576
 21
9.23974
 31
0.0
  0
LINE
  8
0
 62
     0
 10
18.2576
 20
9.23974
 30
0.0
 11
18.2755
 21
9.2232
 31
0.0
  0
LINE
  8
0
 62
     0
 10
18.2755
 20
9.2232
 30
0.0
 11
18.2948
 21
9.20944
 31
0.0
  0
LINE
  8
0
 62
     0
 10
18.2948
 20
9.20944
 30
0.0
 11
18.5043
 21
9.04268
 31
0.0
  0
LINE
  8
0
 62
     0
 10
18.5043
 20
9.04268
 30
0.0
 11
19.6674
 21
8.61138
 31
0.0
  0
LINE
  8
0
 62
     0
 10
19.6674
 20
8.61138
 30
0.0
 11
20.8649
 21
8.65131
 31
0.0
  0
LINE
  8
0
 62
     0
 10
20.8649
 20
8.65131
 30
0.0
 11
21.0936
 21
8.72024
 31
0.0
  0
LINE
  8
0
 62
     0
 10
21.0936
 20
8.72024
 30
0.0
 11
21.321
 21
8.79052
 31
0.0
  0
LINE
  8
0
 62
     0
 10
21.321
 20
8.79052
 30
0.0
 11
22.3655
 21
9.37204
 31
0.0
  0
LINE
  8
0
 62
     0
 10
22.3655
 20
9.37204
 30
0.0
 11
23.2406
 21
10.2154
 31
0.0
  0
LINE
  8
0
 62
     0
 10
23.2406
 20
10.2154
 30
0.0
 11
23.3826
 21
10.4138
 31
0.0
  0
LINE
  8
0
 62
     0
 10
23.3826
 20
10.4138
 30
0.0
 11
23.5176
 21
10.6054
 31
0.0
  0
LINE
  8
0
 62
     0
 10
23.5176
 20
10.6054
 30
0.0
 11
24.0426
 21
11.5948
 31
0.0
  0
LINE
  8
0
 62
     0
 10
24.0426
 20
11.5948
 30
0.0
 11
24.3348
 21
12.6146
 31
0.0
  0
LINE
  8
0
 62
     0
 10
24.3348
 20
12.6146
 30
0.0
 11
24.3541
 21
12.8199
 31
0.0
  0
LINE
  8
0
 62
     0
 10
24.3541
 20
12.8199
 30
0.0
 11
24.372
 21
13.0266
 31
0.0
  0
LINE
  8
0
 62
     0
 10
24.372
 20
13.0266
 30
0.0
 11
24.2259
 21
14.0436
 31
0.0
  0
LINE
  8
0
 62
     0
 10
24.2259
 20
14.0436
 30
0.0
 11
23.7477
 21
14.9738
 31
0.0
  0
LINE
  8
0
 62
     0
 10
23.7477
 20
14.9738
 30
0.0
 11
23.5989
 21
15.1364
 31
0.0
  0
LINE
  8
0
 62
     0
 10
23.5989
 20
15.1364
 30
0.0
 11
23.5782
 21
15.1598
 31
0.0
  0
LINE
  8
0
 62
     0
 10
23.5782
 20
15.1598
 30
0.0
 11
23.552
 21
15.1819
 31
0.0
  0
LINE
  8
0
 62
     0
 10
23.552
 20
15.1819
 30
0.0
 11
23.4487
 21
15.2728
 31
0.0
  0
LINE
  8
0
 62
     0
 10
23.4487
 20
15.2728
 30
0.0
 11
22.3132
 21
15.7689
 31
0.0
  0
LINE
  8
0
 62
     0
 10
22.3132
 20
15.7689
 30
0.0
 11
22.1947
 21
15.7827
 31
0.0
  0
LINE
  8
0
 62
     0
 10
22.0404
 20
14.6568
 30
0.0
 11
22.101
 21
14.6513
 31
0.0
  0
LINE
  8
0
 62
     0
 10
22.101
 20
14.6513
 30
0.0
 11
22.6894
 21
14.3716
 31
0.0
  0
LINE
  8
0
 62
     0
 10
22.6894
 20
14.3716
 30
0.0
 11
22.7487
 21
14.322
 31
0.0
  0
LINE
  8
0
 62
     0
 10
22.7487
 20
14.322
 30
0.0
 11
22.8369
 21
14.2214
 31
0.0
  0
LINE
  8
0
 62
     0
 10
22.8369
 20
14.2214
 30
0.0
 11
23.1221
 21
13.677
 31
0.0
  0
LINE
  8
0
 62
     0
 10
23.1221
 20
13.677
 30
0.0
 11
23.2048
 21
13.0597
 31
0.0
  0
LINE
  8
0
 62
     0
 10
23.2048
 20
13.0597
 30
0.0
 11
23.1938
 21
12.9232
 31
0.0
  0
LINE
  8
0
 62
     0
 10
23.1938
 20
12.9232
 30
0.0
 11
23.18
 21
12.7841
 31
0.0
  0
LINE
  8
0
 62
     0
 10
23.18
 20
12.7841
 30
0.0
 11
22.9622
 21
12.0358
 31
0.0
  0
LINE
  8
0
 62
     0
 10
22.9622
 20
12.0358
 30
0.0
 11
22.5447
 21
11.2489
 31
0.0
  0
LINE
  8
0
 62
     0
 10
22.5447
 20
11.2489
 30
0.0
 11
22.4331
 21
11.0905
 31
0.0
  0
LINE
  8
0
 62
     0
 10
22.4331
 20
11.0905
 30
0.0
 11
22.327
 21
10.9416
 31
0.0
  0
LINE
  8
0
 62
     0
 10
22.327
 20
10.9416
 30
0.0
 11
21.6683
 21
10.3105
 31
0.0
  0
LINE
  8
0
 62
     0
 10
21.6683
 20
10.3105
 30
0.0
 11
20.9117
 21
9.88466
 31
0.0
  0
LINE
  8
0
 62
     0
 10
20.9117
 20
9.88466
 30
0.0
 11
20.756
 21
9.83643
 31
0.0
  0
LINE
  8
0
 62
     0
 10
20.756
 20
9.83643
 30
0.0
 11
20.6017
 21
9.78958
 31
0.0
  0
LINE
  8
0
 62
     0
 10
20.6017
 20
9.78958
 30
0.0
 11
19.8672
 21
9.75653
 31
0.0
  0
LINE
  8
0
 62
     0
 10
19.8672
 20
9.75653
 30
0.0
 11
19.1782
 21
10.0183
 31
0.0
  0
LINE
  8
0
 62
     0
 10
19.1782
 20
10.0183
 30
0.0
 11
19.0486
 21
10.1176
 31
0.0
  0
LINE
  8
0
 62
     0
 10
19.0486
 20
10.1176
 30
0.0
 11
18.9411
 21
10.2223
 31
0.0
  0
LINE
  8
0
 62
     0
 10
18.9411
 20
10.2223
 30
0.0
 11
18.6407
 21
10.7956
 31
0.0
  0
LINE
  8
0
 62
     0
 10
18.6407
 20
10.7956
 30
0.0
 11
18.6104
 21
11.4598
 31
0.0
  0
LINE
  8
0
 62
     0
 10
18.6104
 20
11.4598
 30
0.0
 11
18.6393
 21
11.6072
 31
0.0
  0
LINE
  8
0
 62
     0
 10
18.6393
 20
11.6072
 30
0.0
 11
18.6669
 21
11.7574
 31
0.0
  0
LINE
  8
0
 62
     0
 10
18.6669
 20
11.7574
 30
0.0
 11
18.9728
 21
12.5236
 31
0.0
  0
LINE
  8
0
 62
     0
 10
18.9728
 20
12.5236
 30
0.0
 11
19.4317
 21
13.2319
 31
0.0
  0
LINE
  8
0
 62
     0
 10
19.4317
 20
13.2319
 30
0.0
 11
19.5364
 21
13.3532
 31
0.0
  0
LINE
  8
0
 62
     0
 10
19.5364
 20
13.3532
 30
0.0
 11
19.6522
 21
13.4689
 31
0.0
  0
LINE
  8
0
 62
     0
 10
19.6522
 20
13.4689
 30
0.0
 11
20.3329
 21
14.027
 31
0.0
  0
LINE
  8
0
 62
     0
 10
20.3329
 20
14.027
 30
0.0
 11
21.0757
 21
14.4625
 31
0.0
  0
LINE
  8
0
 62
     0
 10
21.0757
 20
14.4625
 30
0.0
 11
21.2232
 21
14.5162
 31
0.0
  0
LINE
  8
0
 62
     0
 10
21.2232
 20
14.5162
 30
0.0
 11
21.2976
 21
14.5438
 31
0.0
  0
LINE
  8
0
 62
     0
 10
21.2976
 20
14.5438
 30
0.0
 11
21.977
 21
14.6637
 31
0.0
  0
LINE
  8
0
 62
     0
 10
21.977
 20
14.6637
 30
0.0
 11
22.0404
 21
14.6568
 31
0.0
  0
ENDSEC
  0
EOF
