<?xml version="1.0" encoding="UTF-8" standalone="no"?>
<!-- Created with Inkscape (http://www.inkscape.org/) -->

<svg
   xmlns:dc="http://purl.org/dc/elements/1.1/"
   xmlns:cc="http://creativecommons.org/ns#"
   xmlns:rdf="http://www.w3.org/1999/02/22-rdf-syntax-ns#"
   xmlns:svg="http://www.w3.org/2000/svg"
   xmlns="http://www.w3.org/2000/svg"
   xmlns:sodipodi="http://sodipodi.sourceforge.net/DTD/sodipodi-0.dtd"
   xmlns:inkscape="http://www.inkscape.org/namespaces/inkscape"
   width="210mm"
   height="297mm"
   viewBox="0 0 210 297"
   version="1.1"
   id="svg8"
   inkscape:version="0.92.2 5c3e80d, 2017-08-06"
   sodipodi:docname="keyforge.svg">
  <defs
     id="defs2" />
  <sodipodi:namedview
     id="base"
     pagecolor="#ffffff"
     bordercolor="#666666"
     borderopacity="1.0"
     inkscape:pageopacity="0.0"
     inkscape:pageshadow="2"
     inkscape:zoom="22.4"
     inkscape:cx="699.99005"
     inkscape:cy="269.10168"
     inkscape:document-units="mm"
     inkscape:current-layer="layer3"
     showgrid="false"
     showborder="false"
     inkscape:window-width="1611"
     inkscape:window-height="1006"
     inkscape:window-x="0"
     inkscape:window-y="0"
     inkscape:window-maximized="1" />
  <metadata
     id="metadata5">
    <rdf:RDF>
      <cc:Work
         rdf:about="">
        <dc:format>image/svg+xml</dc:format>
        <dc:type
           rdf:resource="http://purl.org/dc/dcmitype/StillImage" />
        <dc:title></dc:title>
      </cc:Work>
    </rdf:RDF>
  </metadata>
  <g
     inkscape:groupmode="layer"
     id="layer3"
     inkscape:label="Layer 2">
    <path
       style="color:#000000;font-style:normal;font-variant:normal;font-weight:normal;font-stretch:normal;font-size:medium;line-height:normal;font-family:sans-serif;font-variant-ligatures:normal;font-variant-position:normal;font-variant-caps:normal;font-variant-numeric:normal;font-variant-alternates:normal;font-feature-settings:normal;text-indent:0;text-align:start;text-decoration:none;text-decoration-line:none;text-decoration-style:solid;text-decoration-color:#000000;letter-spacing:normal;word-spacing:normal;text-transform:none;writing-mode:lr-tb;direction:ltr;text-orientation:mixed;dominant-baseline:auto;baseline-shift:baseline;text-anchor:start;white-space:normal;shape-padding:0;clip-rule:nonzero;display:inline;overflow:visible;visibility:visible;opacity:1;isolation:auto;mix-blend-mode:normal;color-interpolation:sRGB;color-interpolation-filters:linearRGB;solid-color:#000000;solid-opacity:1;vector-effect:none;fill:#000000;fill-opacity:1;fill-rule:nonzero;stroke:none;stroke-width:0.26458332px;stroke-linecap:butt;stroke-linejoin:miter;stroke-miterlimit:4;stroke-dasharray:none;stroke-dashoffset:0;stroke-opacity:1;color-rendering:auto;image-rendering:auto;shape-rendering:auto;text-rendering:auto;enable-background:accumulate"
       d="m 191.61133,220.41797 -6.17578,1.01367 -2.46289,15.47266 0.28125,-0.25977 1.18554,-1.10156 1.5293,-9.65235 2.01758,-0.2832 0.2539,-1.29492 -2.04492,0.28516 0.32422,-2.13477 3.75781,-0.62695 z"
       id="path898"
       inkscape:connector-curvature="0"
       sodipodi:nodetypes="cccccccccccc" />
    <path
       style="color:#000000;font-style:normal;font-variant:normal;font-weight:normal;font-stretch:normal;font-size:medium;line-height:normal;font-family:sans-serif;font-variant-ligatures:normal;font-variant-position:normal;font-variant-caps:normal;font-variant-numeric:normal;font-variant-alternates:normal;font-feature-settings:normal;text-indent:0;text-align:start;text-decoration:none;text-decoration-line:none;text-decoration-style:solid;text-decoration-color:#000000;letter-spacing:normal;word-spacing:normal;text-transform:none;writing-mode:lr-tb;direction:ltr;text-orientation:mixed;dominant-baseline:auto;baseline-shift:baseline;text-anchor:start;white-space:normal;shape-padding:0;clip-rule:nonzero;display:inline;overflow:visible;visibility:visible;opacity:1;isolation:auto;mix-blend-mode:normal;color-interpolation:sRGB;color-interpolation-filters:linearRGB;solid-color:#000000;solid-opacity:1;vector-effect:none;fill:#000000;fill-opacity:1;fill-rule:nonzero;stroke:none;stroke-width:0.26458332px;stroke-linecap:butt;stroke-linejoin:miter;stroke-miterlimit:4;stroke-dasharray:none;stroke-dashoffset:0;stroke-opacity:1;color-rendering:auto;image-rendering:auto;shape-rendering:auto;text-rendering:auto;enable-background:accumulate"
       d="m 184.24219,220.41016 -0.70313,4.5332 -1.96484,-1.98242 -1.69727,0.20703 0.1836,0.19141 3.16211,3.29296 -0.78321,5.3086 1.04297,1.17383 1.87696,-11.56641 z"
       id="path896"
       inkscape:connector-curvature="0"
       sodipodi:nodetypes="cccccccccc" />
    <path
       style="color:#000000;font-style:normal;font-variant:normal;font-weight:normal;font-stretch:normal;font-size:medium;line-height:normal;font-family:sans-serif;font-variant-ligatures:normal;font-variant-position:normal;font-variant-caps:normal;font-variant-numeric:normal;font-variant-alternates:normal;font-feature-settings:normal;text-indent:0;text-align:start;text-decoration:none;text-decoration-line:none;text-decoration-style:solid;text-decoration-color:#000000;letter-spacing:normal;word-spacing:normal;text-transform:none;writing-mode:lr-tb;direction:ltr;text-orientation:mixed;dominant-baseline:auto;baseline-shift:baseline;text-anchor:start;white-space:normal;shape-padding:0;clip-rule:nonzero;display:inline;overflow:visible;visibility:visible;opacity:1;isolation:auto;mix-blend-mode:normal;color-interpolation:sRGB;color-interpolation-filters:linearRGB;solid-color:#000000;solid-opacity:1;vector-effect:none;fill:#000000;fill-opacity:1;fill-rule:nonzero;stroke:none;stroke-width:0.26458332px;stroke-linecap:butt;stroke-linejoin:miter;stroke-miterlimit:4;stroke-dasharray:none;stroke-dashoffset:0;stroke-opacity:1;color-rendering:auto;image-rendering:auto;shape-rendering:auto;text-rendering:auto;enable-background:accumulate"
       d="m 179.70117,223.24219 -2.06363,0.38497 -0.63235,0.66576 c -0.10392,0.68216 -0.17565,1.28296 -0.267,1.96688 l -0.67969,0.60546 0.4668,0.50391 -0.36719,2.33203 0.58399,0.74024 4.18945,-0.65235 -1.01172,-1.0332 -2.41406,0.36719 0.27734,-1.92969 2.00586,-0.25977 0.62891,-0.71093 -0.51367,-0.5586 -1.89844,0.30078 0.17969,-1.32812 2.55273,-0.35742 z"
       id="path894"
       inkscape:connector-curvature="0"
       sodipodi:nodetypes="ccccccccccccccccccc" />
    <path
       style="color:#000000;font-style:normal;font-variant:normal;font-weight:normal;font-stretch:normal;font-size:medium;line-height:normal;font-family:sans-serif;font-variant-ligatures:normal;font-variant-position:normal;font-variant-caps:normal;font-variant-numeric:normal;font-variant-alternates:normal;font-feature-settings:normal;text-indent:0;text-align:start;text-decoration:none;text-decoration-line:none;text-decoration-style:solid;text-decoration-color:#000000;letter-spacing:normal;word-spacing:normal;text-transform:none;writing-mode:lr-tb;direction:ltr;text-orientation:mixed;dominant-baseline:auto;baseline-shift:baseline;text-anchor:start;white-space:normal;shape-padding:0;clip-rule:nonzero;display:inline;overflow:visible;visibility:visible;opacity:1;isolation:auto;mix-blend-mode:normal;color-interpolation:sRGB;color-interpolation-filters:linearRGB;solid-color:#000000;solid-opacity:1;vector-effect:none;fill:#000000;fill-opacity:1;fill-rule:nonzero;stroke:none;stroke-width:0.26458332px;stroke-linecap:butt;stroke-linejoin:miter;stroke-miterlimit:4;stroke-dasharray:none;stroke-dashoffset:0;stroke-opacity:1;color-rendering:auto;image-rendering:auto;shape-rendering:auto;text-rendering:auto;enable-background:accumulate"
       d="m 173.54297,222.24219 -0.27539,0.25976 -1.1543,1.08594 -0.43359,3.45703 -0.67188,0.63672 0.42188,0.5332 -0.76758,4.74805 1.01172,1.12109 0.87109,-5.47265 0.47656,-0.45117 2.46094,3.38086 1.76563,-0.16211 -3.18164,-4.22657 4.44336,-4.58203 -1.74024,0.22071 -3.89062,4.03125 z"
       id="path892"
       inkscape:connector-curvature="0"
       sodipodi:nodetypes="ccccccccccccccccc" />
    <path
       style="color:#000000;font-style:normal;font-variant:normal;font-weight:normal;font-stretch:normal;font-size:medium;line-height:normal;font-family:sans-serif;font-variant-ligatures:normal;font-variant-position:normal;font-variant-caps:normal;font-variant-numeric:normal;font-variant-alternates:normal;font-feature-settings:normal;text-indent:0;text-align:start;text-decoration:none;text-decoration-line:none;text-decoration-style:solid;text-decoration-color:#000000;letter-spacing:normal;word-spacing:normal;text-transform:none;writing-mode:lr-tb;direction:ltr;text-orientation:mixed;dominant-baseline:auto;baseline-shift:baseline;text-anchor:start;white-space:normal;shape-padding:0;clip-rule:nonzero;display:inline;overflow:visible;visibility:visible;opacity:1;isolation:auto;mix-blend-mode:normal;color-interpolation:sRGB;color-interpolation-filters:linearRGB;solid-color:#000000;solid-opacity:1;vector-effect:none;fill:#000000;fill-opacity:1;fill-rule:nonzero;stroke:none;stroke-width:0.26458332px;stroke-linecap:butt;stroke-linejoin:miter;stroke-miterlimit:4;stroke-dasharray:none;stroke-dashoffset:0;stroke-opacity:1;color-rendering:auto;image-rendering:auto;shape-rendering:auto;text-rendering:auto;enable-background:accumulate"
       d="m 197.50586,220.41406 -2.78906,0.38282 0.81836,0.97265 -0.90235,5.89063 0.17188,-0.0195 1.13672,-0.12695 0.4082,-2.76953 1.42773,2.33984 1.54297,-0.18554 -1.62304,-2.64844 c 0.10929,-0.0292 0.28077,-0.0521 0.58984,-0.29688 0.3941,-0.31218 0.80141,-0.87291 1.0076,-1.84374 0.10487,-0.49373 0.0842,-0.86587 -0.074,-1.13282 -0.15819,-0.26695 -0.41158,-0.4174 -0.66601,-0.49804 -0.50603,-0.1604 -1.03703,-0.0655 -1.04297,-0.0645 z m 0.39733,0.85222 c 0.55084,0.0128 0.56677,0.27796 0.55292,0.83366 -0.26798,1.04409 -1.14753,1.22467 -2.00382,1.38677 l 0.23894,-2.02214 c 1.02297,-0.19829 0.66958,-0.12751 1.21196,-0.19829 z"
       id="path954"
       inkscape:connector-curvature="0"
       sodipodi:nodetypes="ccccccccccccccccccccc" />
    <path
       style="color:#000000;font-style:normal;font-variant:normal;font-weight:normal;font-stretch:normal;font-size:medium;line-height:normal;font-family:sans-serif;font-variant-ligatures:normal;font-variant-position:normal;font-variant-caps:normal;font-variant-numeric:normal;font-variant-alternates:normal;font-feature-settings:normal;text-indent:0;text-align:start;text-decoration:none;text-decoration-line:none;text-decoration-style:solid;text-decoration-color:#000000;letter-spacing:normal;word-spacing:normal;text-transform:none;writing-mode:lr-tb;direction:ltr;text-orientation:mixed;dominant-baseline:auto;baseline-shift:baseline;text-anchor:start;white-space:normal;shape-padding:0;clip-rule:nonzero;display:inline;overflow:visible;visibility:visible;opacity:1;isolation:auto;mix-blend-mode:normal;color-interpolation:sRGB;color-interpolation-filters:linearRGB;solid-color:#000000;solid-opacity:1;vector-effect:none;fill:#000000;fill-opacity:1;fill-rule:nonzero;stroke:none;stroke-width:0.26458332px;stroke-linecap:butt;stroke-linejoin:miter;stroke-miterlimit:4;stroke-dasharray:none;stroke-dashoffset:0;stroke-opacity:1;color-rendering:auto;image-rendering:auto;shape-rendering:auto;text-rendering:auto;enable-background:accumulate"
       d="m 203.47656,219.24219 c -0.85531,-0.009 -1.82236,0.41117 -2.64453,1.0625 -0.82217,0.65133 -1.4337,1.60584 -1.67732,2.56291 -0.2389,0.93854 -0.32426,1.83725 0.0309,2.57185 0.3551,0.73461 1.10529,1.2104 2.29492,1.13282 1.19147,-0.0777 2.08946,-0.66743 2.73437,-1.40039 0.64492,-0.73297 0.86786,-1.44185 1.08242,-2.11617 0.0377,-0.1184 0.0726,-0.38964 0.0726,-0.38964 -0.0971,-0.17608 -0.20249,-0.27541 -0.36785,-0.39849 l -0.0215,-0.004 -3.875,0.57422 0.9668,1.05469 1.87304,-0.26953 c -0.0775,0.15596 -0.17263,0.3842 -0.48242,0.75781 -0.40246,0.48538 -0.96745,0.93849 -1.64844,0.89258 -0.70962,-0.0478 -1.12488,-0.33955 -1.35351,-0.7168 -0.22864,-0.37725 -0.265,-0.85409 -0.16406,-1.25781 0.1012,-0.40481 0.42845,-1.09768 0.93164,-1.68164 0.50318,-0.58396 1.1752,-1.05963 1.96875,-1.0918 0.58687,-0.0238 0.8961,0.16427 1.07226,0.34961 0.17617,0.18534 0.21289,0.36523 0.21289,0.36523 l 0.0469,0.22266 0.16992,-0.15234 0.95508,-0.84571 -0.0332,-0.0859 c 0,0 -0.1168,-0.29244 -0.4414,-0.57227 -0.3246,-0.27983 -0.8649,-0.55581 -1.70313,-0.56445 z"
       id="path958"
       inkscape:connector-curvature="0"
       sodipodi:nodetypes="csccsscccccccccccccccccccscc" />
    <path
       style="color:#000000;font-style:normal;font-variant:normal;font-weight:normal;font-stretch:normal;font-size:medium;line-height:normal;font-family:sans-serif;font-variant-ligatures:normal;font-variant-position:normal;font-variant-caps:normal;font-variant-numeric:normal;font-variant-alternates:normal;font-feature-settings:normal;text-indent:0;text-align:start;text-decoration:none;text-decoration-line:none;text-decoration-style:solid;text-decoration-color:#000000;letter-spacing:normal;word-spacing:normal;text-transform:none;writing-mode:lr-tb;direction:ltr;text-orientation:mixed;dominant-baseline:auto;baseline-shift:baseline;text-anchor:start;white-space:normal;shape-padding:0;clip-rule:nonzero;display:inline;overflow:visible;visibility:visible;opacity:1;isolation:auto;mix-blend-mode:normal;color-interpolation:sRGB;color-interpolation-filters:linearRGB;solid-color:#000000;solid-opacity:1;vector-effect:none;fill:#000000;fill-opacity:1;fill-rule:nonzero;stroke:none;stroke-width:0.26458332px;stroke-linecap:butt;stroke-linejoin:miter;stroke-miterlimit:4;stroke-dasharray:none;stroke-dashoffset:0;stroke-opacity:1;color-rendering:auto;image-rendering:auto;shape-rendering:auto;text-rendering:auto;enable-background:accumulate"
       d="m 211.05469,218.18359 -6.08008,0.93164 0.17578,0.1836 0.77344,0.80469 -0.23242,1.50976 -0.61524,0.56055 0.44727,0.48633 -0.28516,2.09961 -1.28711,1.32812 6.0293,-1.0332 -1.08399,-0.97461 -2.34179,0.31836 0.26172,-1.86719 1.97265,-0.31055 0.63086,-0.73047 -0.51953,-0.51953 -1.87305,0.28321 0.20508,-1.2793 2.50586,-0.41016 z"
       id="path960"
       inkscape:connector-curvature="0"
       sodipodi:nodetypes="cccccccccccccccccccc" />
    <path
       style="color:#000000;font-style:normal;font-variant:normal;font-weight:normal;font-stretch:normal;font-size:medium;line-height:normal;font-family:sans-serif;font-variant-ligatures:normal;font-variant-position:normal;font-variant-caps:normal;font-variant-numeric:normal;font-variant-alternates:normal;font-feature-settings:normal;text-indent:0;text-align:start;text-decoration:none;text-decoration-line:none;text-decoration-style:solid;text-decoration-color:#000000;letter-spacing:normal;word-spacing:normal;text-transform:none;writing-mode:lr-tb;direction:ltr;text-orientation:mixed;dominant-baseline:auto;baseline-shift:baseline;text-anchor:start;white-space:normal;shape-padding:0;clip-rule:nonzero;display:inline;overflow:visible;visibility:visible;opacity:1;isolation:auto;mix-blend-mode:normal;color-interpolation:sRGB;color-interpolation-filters:linearRGB;solid-color:#000000;solid-opacity:1;vector-effect:none;fill:#000000;fill-opacity:1;fill-rule:nonzero;stroke:none;stroke-width:1.16499996;stroke-linecap:butt;stroke-linejoin:miter;stroke-miterlimit:4;stroke-dasharray:none;stroke-dashoffset:0;stroke-opacity:1;color-rendering:auto;image-rendering:auto;shape-rendering:auto;text-rendering:auto;enable-background:accumulate"
       d="m 192.85742,221.12109 c -0.47316,-0.0554 -0.94983,0.0177 -1.375,0.17383 -0.85033,0.31237 -1.57913,0.89752 -2.12695,1.44531 l -0.0137,0.0156 -0.0137,0.0137 c -0.54448,0.62418 -1.00428,1.43226 -1.17187,2.30859 -0.16759,0.87634 0.006,1.87329 0.76367,2.58594 l 0.0176,0.0176 0.0195,0.0137 c 0.84037,0.66651 1.88733,0.76524 2.79883,0.48828 0.91149,-0.27695 1.72139,-0.89591 2.28906,-1.69336 0.54204,-0.76143 0.89667,-1.58122 0.9707,-2.40625 0.074,-0.82502 -0.15971,-1.66423 -0.7539,-2.3164 l -0.0215,-0.0234 -0.0254,-0.0215 c -0.4134,-0.36173 -0.88425,-0.54612 -1.35742,-0.60157 z m -0.1543,1.12696 c 0.24133,0.0245 0.47193,0.13809 0.70704,0.33398 0.35687,0.40443 0.49426,0.85296 0.44531,1.39844 -0.05,0.55695 -0.30961,1.20163 -0.75977,1.83398 -0.42452,0.59635 -1.0537,1.0643 -1.67773,1.25391 -0.61356,0.18643 -1.1844,0.11986 -1.70703,-0.28125 -0.42541,-0.41583 -0.52382,-0.89586 -0.41016,-1.49023 0.11487,-0.6007 0.47913,-1.26107 0.89844,-1.7461 0.46652,-0.46304 1.09581,-0.94547 1.68555,-1.16211 0.2983,-0.10958 0.56436,-0.16638 0.81835,-0.14062 z"
       id="path906"
       inkscape:connector-curvature="0" />
  </g>
</svg>
